<svg width="12" height="12" viewBox="0 0 12 12" fill="none" xmlns="http://www.w3.org/2000/svg">
<path fill-rule="evenodd" clip-rule="evenodd" d="M10.4801 2.92385C10.7983 3.18903 10.8413 3.66195 10.5762 3.98016L7.84582 7.25657C7.34175 7.86153 6.91262 8.37653 6.51791 8.73295C6.09869 9.11151 5.61658 9.40694 5 9.40694C4.38342 9.40694 3.9013 9.11151 3.48208 8.73295C3.08738 8.37653 2.65826 7.86153 2.15418 7.25658C2.14255 7.24262 2.13088 7.22861 2.11917 7.21456L1.42383 6.38016C1.15866 6.06195 1.20165 5.58903 1.51986 5.32385C1.83807 5.05868 2.31099 5.10167 2.57617 5.41988L3.2715 6.25428C3.82031 6.91285 4.18152 7.34348 4.48738 7.61968C4.77783 7.88196 4.91402 7.90694 5 7.90694C5.08598 7.90694 5.22217 7.88196 5.51262 7.61968C5.81848 7.34348 6.17969 6.91285 6.7285 6.25429L9.42383 3.01988C9.68901 2.70167 10.1619 2.65868 10.4801 2.92385Z" fill="000000"/>
</svg>
