<svg width="14" height="14" viewBox="0 0 14 14" fill="none" xmlns="http://www.w3.org/2000/svg">
<path d="M10.8017 8.03804L11.2969 8.10696L10.8017 8.03804ZM10.6487 9.13764L11.1439 9.20656V9.20655L10.6487 9.13764ZM3.35131 9.13764L3.84654 9.06872L3.35131 9.13764ZM3.19828 8.03804L2.70305 8.10696V8.10696L3.19828 8.03804ZM5.35711 12.3882L5.16271 12.8488L5.35711 12.3882ZM8.64285 12.3882L8.44846 11.9275H8.44846L8.64285 12.3882ZM3.4144 5.78604C3.38829 5.51114 3.14426 5.30946 2.86935 5.33557C2.59445 5.36169 2.39277 5.60572 2.41889 5.88063L3.4144 5.78604ZM11.5811 5.88063C11.6072 5.60572 11.4055 5.36169 11.1306 5.33557C10.8557 5.30946 10.6117 5.51113 10.5856 5.78604L11.5811 5.88063ZM11.6666 5.16667C11.9428 5.16667 12.1666 4.94281 12.1666 4.66667C12.1666 4.39052 11.9428 4.16667 11.6666 4.16667V5.16667ZM2.33331 4.16667C2.05717 4.16667 1.83331 4.39052 1.83331 4.66667C1.83331 4.94281 2.05717 5.16667 2.33331 5.16667V4.16667ZM5.33331 10.2083C5.33331 10.4845 5.55717 10.7083 5.83331 10.7083C6.10946 10.7083 6.33331 10.4845 6.33331 10.2083H5.33331ZM6.33331 6.41667C6.33331 6.14052 6.10946 5.91667 5.83331 5.91667C5.55717 5.91667 5.33331 6.14052 5.33331 6.41667H6.33331ZM7.66665 10.2083C7.66665 10.4845 7.8905 10.7083 8.16665 10.7083C8.44279 10.7083 8.66665 10.4845 8.66665 10.2083H7.66665ZM8.66665 6.41667C8.66665 6.14052 8.44279 5.91667 8.16665 5.91667C7.8905 5.91667 7.66665 6.14052 7.66665 6.41667H8.66665ZM9.33331 4.66667V5.16667H9.83331V4.66667H9.33331ZM4.66665 4.66667H4.16665V5.16667H4.66665V4.66667ZM10.3065 7.96912L10.1534 9.06872L11.1439 9.20655L11.2969 8.10696L10.3065 7.96912ZM3.84654 9.06872L3.69351 7.96912L2.70305 8.10696L2.85608 9.20656L3.84654 9.06872ZM6.99998 12.0417C6.10235 12.0417 5.79966 12.0322 5.5515 11.9275L5.16271 12.8488C5.64213 13.0511 6.19218 13.0417 6.99998 13.0417V12.0417ZM6.99998 13.0417C7.80778 13.0417 8.35782 13.0511 8.83725 12.8488L8.44846 11.9275C8.2003 12.0322 7.89761 12.0417 6.99998 12.0417V13.0417ZM3.69351 7.96912C3.56386 7.03754 3.46734 6.34318 3.4144 5.78604L2.41889 5.88063C2.47436 6.46448 2.57459 7.18388 2.70305 8.10696L3.69351 7.96912ZM11.2969 8.10696C11.4254 7.18388 11.5256 6.46448 11.5811 5.88063L10.5856 5.78604C10.5326 6.34318 10.4361 7.03754 10.3065 7.96912L11.2969 8.10696ZM11.6666 4.16667H2.33331V5.16667H11.6666V4.16667ZM6.33331 10.2083V6.41667H5.33331V10.2083H6.33331ZM8.66665 10.2083V6.41667H7.66665V10.2083H8.66665ZM8.83331 4.08333V4.66667H9.83331V4.08333H8.83331ZM9.33331 4.16667H4.66665V5.16667H9.33331V4.16667ZM5.16665 4.66667V4.08333H4.16665V4.66667H5.16665ZM6.99998 2.25C8.0125 2.25 8.83331 3.07081 8.83331 4.08333H9.83331C9.83331 2.51853 8.56479 1.25 6.99998 1.25V2.25ZM6.99998 1.25C5.43517 1.25 4.16665 2.51853 4.16665 4.08333H5.16665C5.16665 3.07081 5.98746 2.25 6.99998 2.25V1.25ZM10.1534 9.06872C10.0758 9.62642 9.89081 10.2519 9.5948 10.7872C9.29736 11.3251 8.91081 11.7324 8.44846 11.9275L8.83725 12.8488C9.57515 12.5374 10.1068 11.9277 10.4699 11.2711C10.8344 10.612 11.0522 9.86547 11.1439 9.20656L10.1534 9.06872ZM2.85608 9.20656C2.94778 9.86547 3.16555 10.612 3.53005 11.2711C3.89311 11.9277 4.42481 12.5374 5.16271 12.8488L5.5515 11.9275C5.08915 11.7324 4.7026 11.3251 4.40516 10.7872C4.10915 10.2519 3.92415 9.62643 3.84654 9.06872L2.85608 9.20656Z" fill="#929292"/>
</svg>
