<svg width="22" height="22" viewBox="0 0 22 22" fill="none" xmlns="http://www.w3.org/2000/svg">
<path fill-rule="evenodd" clip-rule="evenodd" d="M10.811 0.958078C10.94 0.953346 11.0692 0.953346 11.1982 0.958078C12.0541 0.989476 12.8221 1.28077 13.6572 1.75956C14.469 2.22499 15.4024 2.90312 16.5807 3.75928L16.6511 3.81037C17.8294 4.6665 18.7628 5.34462 19.4563 5.97286C20.1697 6.61915 20.6841 7.25955 20.9784 8.06383C21.0228 8.18507 21.0627 8.30789 21.0981 8.43205C21.3327 9.25573 21.293 10.0762 21.0957 11.0184C20.9039 11.9343 20.5474 13.0315 20.0973 14.4168L20.0704 14.4994C19.6203 15.8847 19.2638 16.9819 18.8806 17.8356C18.4864 18.7138 18.0363 19.4009 17.3624 19.9294C17.2608 20.0091 17.1563 20.085 17.0491 20.157C16.3383 20.6346 15.5457 20.8504 14.5887 20.9539C13.6583 21.0545 12.5046 21.0545 11.0481 21.0545H10.9612C9.50459 21.0545 8.35089 21.0545 7.42057 20.9539C6.46352 20.8504 5.67097 20.6346 4.9601 20.157C4.85295 20.085 4.74847 20.0091 4.64687 19.9294C3.97292 19.4009 3.5228 18.7138 3.1286 17.8356C2.74541 16.9819 2.38891 15.8847 1.93881 14.4994L1.91196 14.4168C1.46185 13.0315 1.10533 11.9343 0.913541 11.0184C0.716247 10.0762 0.676541 9.25573 0.911159 8.43205C0.946524 8.30789 0.986431 8.18507 1.0308 8.06383C1.32514 7.25955 1.8395 6.61915 2.55293 5.97286C3.24643 5.34462 4.1798 4.66649 5.35819 3.81036L5.4285 3.75927C6.60687 2.90312 7.54024 2.22498 8.35203 1.75956C9.18715 1.28077 9.95516 0.989476 10.811 0.958078ZM11.1432 2.45707C11.0508 2.45368 10.9584 2.45368 10.866 2.45707C10.3421 2.47629 9.81611 2.64921 9.0981 3.06086C8.36482 3.48127 7.49639 4.11097 6.27502 4.99834C5.05365 5.88572 4.18642 6.51706 3.55999 7.08453C2.9466 7.6402 2.61961 8.087 2.43943 8.57935C2.40767 8.66614 2.3791 8.75407 2.35378 8.84296C2.21015 9.34719 2.21207 9.90086 2.3817 10.7109C2.55493 11.5382 2.88545 12.5588 3.35197 13.9946C3.81849 15.4304 4.15094 16.4502 4.49707 17.2214C4.83599 17.9765 5.15988 18.4255 5.57245 18.749C5.64518 18.806 5.71998 18.8604 5.79669 18.9119C6.23186 19.2043 6.75902 19.3736 7.58187 19.4626C8.42222 19.5535 9.49492 19.5545 11.0046 19.5545C12.5143 19.5545 13.587 19.5535 14.4274 19.4626C15.2502 19.3736 15.7774 19.2043 16.2125 18.9119C16.2892 18.8604 16.364 18.806 16.4368 18.749C16.8493 18.4255 17.1732 17.9765 17.5122 17.2214C17.8583 16.4502 18.1907 15.4304 18.6573 13.9946C19.1238 12.5588 19.4543 11.5382 19.6275 10.7109C19.7972 9.90086 19.7991 9.34719 19.6554 8.84296C19.6301 8.75407 19.6016 8.66614 19.5698 8.57935C19.3896 8.087 19.0626 7.6402 18.4492 7.08453C17.8228 6.51706 16.9556 5.88572 15.7342 4.99834C14.5128 4.11097 13.6444 3.48127 12.9111 3.06086C12.1931 2.64921 11.6671 2.47629 11.1432 2.45707ZM8.44244 16.0385C8.44244 15.6243 8.77823 15.2885 9.19244 15.2885H12.8168C13.231 15.2885 13.5668 15.6243 13.5668 16.0385C13.5668 16.4527 13.231 16.7885 12.8168 16.7885H9.19244C8.77823 16.7885 8.44244 16.4527 8.44244 16.0385Z" fill="000000"/>
</svg>
