<svg width="22" height="22" viewBox="0 0 22 22" fill="none" xmlns="http://www.w3.org/2000/svg">
<path fill-rule="evenodd" clip-rule="evenodd" d="M10.8541 1.3C10.9022 1.30001 10.9508 1.30002 11.0001 1.30002C11.0494 1.30002 11.098 1.30001 11.1461 1.3C12.6608 1.29976 13.5876 1.29962 14.3606 1.54179C15.9198 2.03034 17.1545 3.21347 17.6681 4.73785C17.6897 4.80175 17.7093 4.86624 17.7272 4.93157C18.0994 5.21399 18.4304 5.54536 18.7103 5.91685C19.2403 6.62029 19.4764 7.4438 19.5896 8.45094C19.7001 9.43439 19.7001 10.6721 19.7001 12.2424V12.3291C19.7001 13.8994 19.7001 15.1371 19.5896 16.1205C19.4764 17.1277 19.2403 17.9512 18.7103 18.6546C18.3915 19.0778 18.0064 19.4488 17.5696 19.7548C16.8474 20.2608 16.0043 20.4857 14.9686 20.5939C13.9529 20.7 12.6728 20.7 11.0408 20.7H10.9593C9.32726 20.7 8.04725 20.7 7.03154 20.5939C5.99575 20.4857 5.15267 20.2608 4.43046 19.7548C3.99372 19.4488 3.6086 19.0778 3.28979 18.6546C2.75978 17.9512 2.52369 17.1277 2.41053 16.1205C2.30003 15.1371 2.30004 13.8994 2.30005 12.3291V12.2424C2.30004 10.6721 2.30003 9.43438 2.41053 8.45094C2.52369 7.4438 2.75978 6.62029 3.28979 5.91685C3.56972 5.54532 3.90076 5.21392 4.27299 4.93148C4.2909 4.86618 4.31053 4.80172 4.33205 4.73785C4.84569 3.21347 6.08036 2.03034 7.63962 1.54179C8.41257 1.29962 9.33942 1.29976 10.8541 1.3ZM6.26382 4.08805C6.52425 4.03829 6.79796 4.00075 7.08644 3.97194C8.09276 3.87143 9.35673 3.87144 10.9615 3.87145H11.0386C12.6434 3.87144 13.9074 3.87143 14.9138 3.97195C15.2022 4.00076 15.476 4.0383 15.7364 4.08807C15.2854 3.53136 14.6654 3.10441 13.942 2.87776C13.4005 2.7081 12.7073 2.70002 11.0001 2.70002C9.29285 2.70002 8.59968 2.7081 8.0582 2.87776C7.3348 3.10441 6.7148 3.53135 6.26382 4.08805ZM7.22557 5.36501C6.30647 5.4568 5.72871 5.63274 5.28205 5.93026C5.26584 5.94106 5.24975 5.95205 5.23377 5.96325C4.91589 6.18595 4.63739 6.45478 4.40793 6.75932C4.08913 7.18244 3.90082 7.72572 3.80177 8.60726C3.70108 9.50345 3.70005 10.6625 3.70005 12.2857C3.70005 13.9089 3.70108 15.068 3.80177 15.9642C3.90082 16.8457 4.08913 17.389 4.40793 17.8122C4.63739 18.1167 4.91589 18.3855 5.23377 18.6082C5.67985 18.9207 6.25419 19.1051 7.17702 19.2015C8.1115 19.2991 9.31846 19.3 11 19.3C12.6816 19.3 13.8886 19.2991 14.8231 19.2015C15.7459 19.1051 16.3203 18.9207 16.7663 18.6082C17.0842 18.3855 17.3627 18.1167 17.5922 17.8122C17.911 17.389 18.0993 16.8457 18.1983 15.9642C18.299 15.068 18.3 13.9089 18.3 12.2857C18.3 10.6625 18.299 9.50345 18.1983 8.60726C18.0993 7.72572 17.911 7.18244 17.5922 6.75932C17.3627 6.45478 17.0842 6.18595 16.7663 5.96325C16.7504 5.95207 16.7343 5.94109 16.7181 5.93032C16.2715 5.63277 15.6937 5.45682 14.7746 5.36502C13.8459 5.27226 12.6517 5.27145 11 5.27145C9.34845 5.27145 8.15423 5.27226 7.22557 5.36501Z" fill="#283244"/>
<path d="M8 12C8 12.5523 7.55228 13 7 13C6.44772 13 6 12.5523 6 12C6 11.4477 6.44772 11 7 11C7.55228 11 8 11.4477 8 12Z" fill="#283244"/>
<path d="M12 12C12 12.5523 11.5523 13 11 13C10.4477 13 10 12.5523 10 12C10 11.4477 10.4477 11 11 11C11.5523 11 12 11.4477 12 12Z" fill="#283244"/>
<path d="M16 12C16 12.5523 15.5523 13 15 13C14.4477 13 14 12.5523 14 12C14 11.4477 14.4477 11 15 11C15.5523 11 16 11.4477 16 12Z" fill="#283244"/>
</svg>
