<svg width="22" height="22" viewBox="0 0 22 22" fill="none" xmlns="http://www.w3.org/2000/svg">
<path fill-rule="evenodd" clip-rule="evenodd" d="M7.92072 4.06925C9.30858 4.06925 10.4337 5.19434 10.4337 6.58221C10.4337 7.97008 9.30858 9.09517 7.92072 9.09517C6.53285 9.09517 5.40776 7.97008 5.40776 6.58221C5.40776 5.19434 6.53285 4.06925 7.92072 4.06925ZM11.8337 6.58221C11.8337 4.42114 10.0818 2.66925 7.92072 2.66925C5.75965 2.66925 4.00776 4.42114 4.00776 6.58221C4.00776 8.74328 5.75965 10.4952 7.92072 10.4952C10.0818 10.4952 11.8337 8.74328 11.8337 6.58221ZM15.0466 16.2211C15.0466 14.06 13.2947 12.3081 11.1337 12.3081H4.70776C2.54669 12.3081 0.7948 14.06 0.7948 16.2211C0.7948 18.3821 2.54669 20.134 4.70776 20.134H11.1337C13.2947 20.134 15.0466 18.3821 15.0466 16.2211ZM11.1337 13.7081C12.5215 13.7081 13.6466 14.8332 13.6466 16.2211C13.6466 17.6089 12.5215 18.734 11.1337 18.734H4.70776C3.31989 18.734 2.1948 17.6089 2.1948 16.2211C2.1948 14.8332 3.31989 13.7081 4.70776 13.7081H11.1337Z" fill="#283244"/>
<path d="M15.7301 18.019C15.8517 17.8162 16.0663 17.6796 16.3028 17.6796H16.6369C17.9677 17.6796 19.0466 16.4809 19.0466 15.15C19.0466 13.8192 17.9677 12.6603 16.6369 12.6603H16.3028C16.0663 12.6603 15.8517 12.5238 15.7301 12.3209C15.4333 11.8258 15.7554 11.1339 16.3327 11.1339H16.4887C18.7068 11.1339 20.5049 12.932 20.5049 15.15C20.5049 17.3681 18.7068 19.1662 16.4887 19.1662H16.3327C15.7554 19.1662 15.4333 18.5141 15.7301 18.019Z" fill="#283244"/>
<path d="M12.556 9.49417C12.6776 9.29133 12.8922 9.15481 13.1287 9.15481H13.4628C14.7936 9.15481 15.8725 7.95606 15.8725 6.62521C15.8725 5.29436 14.7936 4.13545 13.4628 4.13545H13.1287C12.8922 4.13545 12.6776 3.99893 12.556 3.79609C12.2593 3.30096 12.5813 2.60901 13.1586 2.60901H13.3146C15.5327 2.60901 17.3308 4.40712 17.3308 6.62521C17.3308 8.84329 15.5327 10.6414 13.3146 10.6414H13.1586C12.5813 10.6414 12.2593 9.98929 12.556 9.49417Z" fill="#283244"/>
</svg>
