<svg width="22" height="22" viewBox="0 0 22 22" fill="none" xmlns="http://www.w3.org/2000/svg">
<path fill-rule="evenodd" clip-rule="evenodd" d="M10.896 2H10.979C12.6625 1.99999 13.9821 1.99999 15.0291 2.11342C16.0975 2.22917 16.9632 2.46963 17.7023 3.00664C18.1497 3.33174 18.5433 3.72525 18.8684 4.17272C19.4054 4.91185 19.6458 5.77753 19.7616 6.84594C19.875 7.89289 19.875 9.21252 19.875 10.896V10.9476C19.875 12.011 19.875 12.9253 19.8481 13.711C19.7892 15.4284 19.6034 16.6906 18.8684 17.7023C18.5433 18.1497 18.1497 18.5433 17.7023 18.8684C16.6906 19.6034 15.4284 19.7892 13.711 19.8481C12.9253 19.875 12.011 19.875 10.9476 19.875H10.896C9.21252 19.875 7.89289 19.875 6.84594 19.7616C5.77753 19.6458 4.91185 19.4054 4.17272 18.8684C3.72525 18.5433 3.33174 18.1497 3.00664 17.7023C2.46963 16.9632 2.22917 16.0975 2.11342 15.0291C1.99999 13.9821 1.99999 12.6625 2 10.979V10.896C1.99999 9.21253 1.99999 7.89289 2.11342 6.84594C2.22917 5.77753 2.46963 4.91185 3.00664 4.17272C3.33174 3.72525 3.72525 3.33174 4.17272 3.00664C4.91185 2.46963 5.77753 2.22917 6.84594 2.11342C7.8929 1.99999 9.21253 1.99999 10.896 2ZM6.99404 3.48042C6.04262 3.5835 5.44659 3.78071 4.98092 4.11904C4.65018 4.35933 4.35933 4.65018 4.11904 4.98092C3.78071 5.44659 3.5835 6.04262 3.48042 6.99404C3.37594 7.95833 3.375 9.20356 3.375 10.9375C3.375 12.6714 3.37594 13.9167 3.48042 14.881C3.5835 15.8324 3.78071 16.4284 4.11904 16.8941C4.35933 17.2248 4.65019 17.5157 4.98092 17.756C5.44659 18.0943 6.04262 18.2915 6.99404 18.3946C7.95833 18.4991 9.20356 18.5 10.9375 18.5C11.7152 18.5 12.3966 18.5 13.0017 18.4901C13.0057 18.055 13.0192 17.7347 13.0649 17.4463C13.4221 15.1909 15.1909 13.4221 17.4463 13.0649C17.7347 13.0192 18.055 13.0057 18.4901 13.0017C18.5 12.3966 18.5 11.7152 18.5 10.9375C18.5 9.20356 18.4991 7.95833 18.3946 6.99404C18.2915 6.04262 18.0943 5.44659 17.756 4.98092C17.5157 4.65019 17.2248 4.35933 16.8941 4.11904C16.4284 3.78071 15.8324 3.5835 14.881 3.48042C13.9167 3.37594 12.6714 3.375 10.9375 3.375C9.20356 3.375 7.95833 3.37594 6.99404 3.48042ZM18.4382 14.3776C18.067 14.3818 17.8493 14.3932 17.6614 14.423C15.9944 14.687 14.687 15.9944 14.423 17.6614C14.3932 17.8493 14.3818 18.067 14.3776 18.4382C15.6245 18.3522 16.3446 18.1552 16.8941 17.756C17.2248 17.5157 17.5157 17.2248 17.756 16.8941C18.1552 16.3446 18.3522 15.6245 18.4382 14.3776ZM10.0208 7.95833L7.27083 7.95833C6.89114 7.95833 6.58333 7.65053 6.58333 7.27083C6.58333 6.89114 6.89114 6.58333 7.27083 6.58333L10.0208 6.58333C10.4005 6.58333 10.7083 6.89114 10.7083 7.27083C10.7083 7.65053 10.4005 7.95833 10.0208 7.95833ZM15.2917 10.9375C15.2917 11.3172 14.9839 11.625 14.6042 11.625L7.27083 11.625C6.89114 11.625 6.58333 11.3172 6.58333 10.9375C6.58333 10.5578 6.89114 10.25 7.27083 10.25L14.6042 10.25C14.9839 10.25 15.2917 10.5578 15.2917 10.9375Z" fill="#283244"/>
</svg>
